<svg width="108" height="108" viewBox="0 0 108 108" fill="none" xmlns="http://www.w3.org/2000/svg">
<path d="M108 54C108 68.3217 102.311 82.0568 92.1838 92.1838C82.0568 102.311 68.3217 108 54 108C39.6783 108 25.9432 102.311 15.8162 92.1838C5.68927 82.0568 0 68.3217 0 54C0 39.6783 5.68927 25.9432 15.8162 15.8162C25.9432 5.68927 39.6783 0 54 0C68.3217 0 82.0568 5.68927 92.1838 15.8162C102.311 25.9432 108 39.6783 108 54ZM57.375 30.375C57.375 29.4799 57.0194 28.6215 56.3865 27.9885C55.7536 27.3556 54.8951 27 54 27C53.1049 27 52.2465 27.3556 51.6135 27.9885C50.9806 28.6215 50.625 29.4799 50.625 30.375V69.4778L36.1395 54.9855C35.5058 54.3518 34.6462 53.9957 33.75 53.9957C32.8538 53.9957 31.9942 54.3518 31.3605 54.9855C30.7268 55.6192 30.3707 56.4788 30.3707 57.375C30.3707 58.2712 30.7268 59.1308 31.3605 59.7645L51.6105 80.0145C51.924 80.3288 52.2964 80.5782 52.7065 80.7483C53.1165 80.9184 53.5561 81.006 54 81.006C54.4439 81.006 54.8835 80.9184 55.2935 80.7483C55.7036 80.5782 56.076 80.3288 56.3895 80.0145L76.6395 59.7645C77.2732 59.1308 77.6293 58.2712 77.6293 57.375C77.6293 56.4788 77.2732 55.6192 76.6395 54.9855C76.0058 54.3518 75.1462 53.9957 74.25 53.9957C73.3538 53.9957 72.4942 54.3518 71.8605 54.9855L57.375 69.4778V30.375Z" fill="#FCB017"/>
</svg>
